<svg version="1.2" xmlns="http://www.w3.org/2000/svg" viewBox="0 0 1422 537" width="1422" height="537">
	<title>bg-svg</title>
	<style>
		.s0 { opacity: .2;fill: none;stroke: #9b8640;stroke-width: 2 } 
	</style>
	<g id="Layer">
		<path id="Layer" fill-rule="evenodd" class="s0" d="m-8 48.3c44.2-25.4 80.4 20.5 140 1.3 30.7-9.9 11.2-47.1 40.6-59.6 40.6-17.3 49.7 0 99.4 0 70 0 70 0 140 0 70 0 70 0 140 0 41.5 0 72.1-25.8 83 0 18.5 44.2-42 86.9-24.3 140 10.8 32.6 44.4 31.5 81.3 31.5 17.9 0 13-16.9 28.3-31.5 54.7-52.4 55.1-52.1 111.7-102.5 22-19.6 18.6-30.3 45.5-37.5 43.1-11.5 47.2 0 94.5 0 70 0 70 0 140 0 70 0 70 0 140 0 59.7 0 63.4-8.7 119.3 0 14.1 2.2 6.6 20.7 20.7 21.7 66.2 4.8 103.5-41.1 140-10.2 33.5 28.3 0 64.2 0 128.5 0 66.4 33.9 106.1 0 132.9-36.1 28.5-73.5-24.9-140-22.2-22.5 0.9-31.1 7.8-37.9 29.3-20.1 63.2-10.4 69.8-15.9 140-5.5 69.8 21.2 95.4-6.2 140-15.7 25.4-40 0-80 0-70 0-70 0-140 0-55.8 0-71.3 22.1-111.7 0-29.6-16.2-12.8-76.8-28.3-76.8-15.9 0-3.4 59.8-34.5 76.8-38.9 21.4-52.7 0-105.5 0-70 0-70 0-140 0-58.9 0-105.4 30.5-117.9 0-16.1-39.5 58.6-69.3 60.6-140 2-69.3-26.2-70-52.6-140-14.9-39.7-5.4-46.7-30.1-79.3-28.3-37.4-35.1-34.9-75.8-60.7-29.3-18.6-35.8-28-64.2-28-14.1 0-19.4 11.3-20.8 28-5.6 67.3 34 82.8 7 140-32.6 68.9-54.4 73.5-126.2 112.3-57.6 31.2-132.6 11.1-132.6 27.7 0 16.9 64.9 30.9 132.6 39.4 68.6 8.6 80.3-29.4 140-5.3 64.6 26.2 108.5 75 108.5 105.9 0 22.1-54.2 0-108.5 0-70 0-70 0-140 0-45.3 0-63.6 26.1-90.7 0-42.9-41.2-2-108.6-49.3-134.6-47.3-26-84.1 32.9-140 30.7-14.1-0.5 0-18 0-36.1 0-70 0-70 0-140 0-70 0-70 0-140 0-40.8-25.8-66.8 0-81.7z"/>
		<path id="Layer" fill-rule="evenodd" class="s0" d="m1112 126.3c-6 1-10.4-2-11.7 3.7-15.1 66.1-25.4 73.4-21.2 140 1.6 27.2 14.8 47.7 32.9 47.7 20.3 0 22-23.9 43.9-47.7 48.1-52.1 49.2-51.2 96.1-104.3 14.9-16.9 27.5-18.9 27.5-35.7 0-14.2-9.8-25.9-27.5-26.2-66-1.5-70.2 10.4-140 22.5z"/>
		<path id="Layer" fill-rule="evenodd" class="s0" d="m1437.7 410c0-59.6 68.1-127.6 94.3-127.6 21 0 0 63.8 0 127.6 0 44.3 19.2 88.6 0 88.6-28 0-94.3-40-94.3-88.6z"/>
		<path id="Layer" fill-rule="evenodd" class="s0" d="m85.3 130c23.4-3.1 31.2 9.8 46.7-6 53.5-54.2 37.5-82.5 91.3-134 16.2-15.5 24.4 0 48.7 0 70 0 70 0 140 0 70 0 70 0 140 0 9.1 0 18.1-6.4 18.1 0 0 19.4 4.1 44.8-18.1 51.6-56.9 17.4-82.7-27.6-140-3.2-46.7 19.8-55.3 39.7-68.1 91.6-15.7 63.9 31.1 80.3 11.1 140-15.9 47.2-33.8 54.6-83 73.9-62.3 24.4-69.9 7.3-140 13.6-70 6.3-98.9 37.1-140 11.5-28.9-18.1 0-49.5 0-99 0-63.8-26.9-87.3 0-127.6 19.8-29.7 46.6-6.3 93.3-12.4z"/>
		<path id="Layer" fill-rule="evenodd" class="s0" d="m759.6 130c34.5-34.9 35.3-34.3 72.4-66.4 43.7-37.8 40.6-48 89.2-73.6 21.4-11.2 25.4 0 50.8 0 70 0 70 0 140 0 70 0 70 0 140 0 31 0 62-12.4 62 0 0 17.1-24.2 42.3-62 59.1-63.2 28-70.4 13.6-140 30.5-70.4 17.1-73 14.5-140 37.3-7.3 2.4-8.6 6.5-8.6 13.1 0 6.9 5.2 6.6 8.6 14 28.7 62.6 55.6 64.3 55.6 126 0 51-18 59.8-55.6 99.5-28.7 30.3-60.7 5.9-77 40.5-26.3 55.7 14.4 89.7-8.2 140-8.9 19.7-27.4 0-54.8 0-70 0-70 0-140 0-28.2 0-56.5 17-56.5 0 0-36.6 19.1-62.8 56.5-107.3 21.4-25.5 61.2-18.5 61.2-32.7 0-13.3-40.5 0.6-61.2-22.3-42.7-47.1-65.6-63.5-65.6-117.7 0-37.1 33.8-31.4 65.6-64.8 34.9-36.6 32.1-39.3 67.6-75.2z"/>
		<path id="Layer" fill-rule="evenodd" class="s0" d="m1336.9 130c0-28.5 19.8-45 55.1-57.9 62.2-22.7 93.5-32.5 140-13.3 23.5 9.8 0 35.6 0 71.2 0 36.8 24 64.3 0 73.6-46 17.8-76.9 4.4-140-19.4-34.5-13-55.1-26.6-55.1-54.2z"/>
		<path id="Layer" fill-rule="evenodd" class="s0" d="m1224.5 270c0-18.6 13.5-29.8 27.5-29.8 14.4 0 29.2 10.8 29.2 29.8 0 59.5-15 127.3-29.2 127.3-14.1 0-27.5-67.4-27.5-127.3z"/>
		<path id="Layer" fill-rule="evenodd" class="s0" d="m1062.6 410c9.5-21.4 23.8-17.9 49.4-17.9 59.1 0 67.5-1.9 120 17.9 17.5 6.6 16.1 15.6 20 35 10.3 50.6 8.6 56.4 8.6 105 0 4-4.3 0-8.6 0-70 0-70 0-140 0-35 0-61.8 23.2-70 0-16.5-46.8-4.9-82.4 20.6-140z"/>
		<path id="Layer" fill-rule="evenodd" class="s0" d="m1513.7 410c0-11.5 13.2-24.7 18.3-24.7 4.1 0 0 12.3 0 24.7 0 8.6 3.7 17.1 0 17.1-5.4 0-18.3-7.7-18.3-17.1z"/>
		<path id="Layer" fill-rule="evenodd" class="s0" d="m230.6 550c0-13.8 13.9-42.8 41.4-45.9 63.2-7.2 73.3 6.4 140 25.4 13.8 3.9 21 14.5 21 20.5 0 4.3-10.5 0-21 0-70 0-70 0-140 0-20.7 0-41.4 9.2-41.4 0z"/>
		<path id="Layer" fill-rule="evenodd" class="s0" d="m221.4 130c37.2-57 31.3-130 50.6-130 18.3 0 15 64.6 24.6 130 10.2 69.6 24.1 76.4 15.1 140-3.3 24.1-15 30.9-39.7 35.4-65.1 11.9-70-3.4-140-2.6-70 0.8-85.1 18.7-140 5.8-15.1-3.5 0-19.3 0-38.6 0-24.9-18.4-42.5 0-49.8 51.6-20.4 79 18.5 140-5.5 53.7-21.1 56.6-34.3 89.4-84.7z"/>
		<path id="Layer" fill-rule="evenodd" class="s0" d="m799 130c15.3-16.3 14.4-30.3 33-30.3 27.9 0 38.6 5.8 60 30.3 48.6 55.9 40.6 65 80 130.7 2.6 4.3 4.1 4.7 4.1 9.3 0 3.8-0.2 5.8-4.1 7.4-68.2 27-68.2 41.7-140 49.6-68.2 7.6-78.4 3-140-18.8-19-6.8-21.3-20.6-21.3-38.2 0-12 11.2-10 21.3-21 54-59 52.3-60.7 107-119z"/>
		<path id="Layer" fill-rule="evenodd" class="s0" d="m972 7.5c-8.6-2.5-7-11.1-7-17.5 0-2.4 3.5 0 7 0 70 0 70 0 140 0 70 0 70 0 140 0 2.3 0 4.6-0.9 4.6 0 0 1.3-1.6 3.5-4.6 4.4-69.3 20.5-69.3 35.2-140 38.5-69.3 3.3-75.1-6.4-140-25.4z"/>
		<path id="Layer" fill-rule="evenodd" class="s0" d="m1412 130c0-7 66.1-13.8 120-13.8 6.1 0 0 6.9 0 13.8 0 7.1 6.3 14.2 0 14.2-53.7 0-120-7.2-120-14.2z"/>
		<path id="Layer" fill-rule="evenodd" class="s0" d="m762 550c0-3.9 39.8-15.6 70-15.6 6.8 0 4.1 9.4 4.1 15.6 0 1.6-2.1 0-4.1 0-35 0-70 3.8-70 0z"/>
		<path id="Layer" fill-rule="evenodd" class="s0" d="m1083.7 550c0-23.7 8.5-66.1 28.3-66.1 24.8 0 61 46.4 61 66.1 0 13.4-30.5 0-61 0-14.2 0-28.3 9.3-28.3 0z"/>
	</g>
</svg>