<svg xmlns="http://www.w3.org/2000/svg" version="1.1" xmlns:xlink="http://www.w3.org/1999/xlink" xmlns:svgjs="http://svgjs.dev/svgjs" width="1440" height="560" preserveAspectRatio="none" viewBox="0 0 1440 560"><g mask="url(&quot;#SvgjsMask1010&quot;)" fill="none"><path d="M0 58.33C44.21 32.93 80.4 78.82 140 59.57C170.69 49.66 151.16 12.52 180.58 0C221.16 -17.27 230.29 0 280 0C350 0 350 0 420 0C490 0 490 0 560 0C601.48 0 632.14 -25.8 642.96 0C661.49 44.2 601.03 86.86 618.71 140C629.55 172.61 663.12 171.5 700 171.5C717.92 171.5 713.02 154.63 728.31 140C783.02 87.64 783.42 87.92 840 37.53C862.02 17.92 858.6 7.21 885.5 0C928.6 -11.55 932.75 0 980 0C1050 0 1050 0 1120 0C1190 0 1190 0 1260 0C1319.67 0 1323.39 -8.68 1379.34 0C1393.39 2.18 1385.86 20.71 1400 21.72C1466.19 26.45 1503.46 -19.39 1540 11.48C1573.46 39.75 1540 75.74 1540 140C1540 206.44 1573.87 246.11 1540 272.88C1503.87 301.44 1466.47 247.99 1400 250.65C1377.51 251.55 1368.92 258.5 1362.08 280C1341.99 343.18 1351.69 349.81 1346.15 420C1340.65 489.81 1367.42 515.44 1340 560C1324.35 585.44 1300 560 1260 560C1190 560 1190 560 1120 560C1064.16 560 1048.73 582.15 1008.33 560C978.73 543.77 995.48 483.23 980 483.23C964.07 483.23 976.57 542.97 945.51 560C906.57 581.35 892.76 560 840 560C770 560 770 560 700 560C641.06 560 594.59 590.51 582.11 560C565.96 520.51 640.71 490.7 642.73 420C644.72 350.7 616.52 349.97 590.13 280C575.16 240.3 584.71 233.31 560 200.67C531.73 163.31 524.85 165.76 484.17 140C454.85 121.43 448.36 112 420 112C405.87 112 400.57 123.26 399.19 140C393.65 207.26 433.2 222.79 406.17 280C373.6 348.94 351.8 353.47 280 392.31C222.4 423.47 147.37 403.41 147.37 420C147.37 436.94 212.27 450.9 280 459.38C348.58 467.97 360.32 429.99 420 454.15C484.57 480.3 528.5 529.15 528.5 560C528.5 582.08 474.25 560 420 560C350 560 350 560 280 560C234.65 560 216.43 586.08 189.3 560C146.43 518.77 187.33 451.35 140 425.38C92.68 399.41 55.91 458.28 0 456.13C-14.09 455.59 0 438.07 0 420C0 350 0 350 0 280C0 210 0 210 0 140C0 99.16 -25.79 73.15 0 58.33" stroke="rgba(155, 134, 64, 0.2)" stroke-width="2"></path><path d="M1120 136.27C1113.97 137.31 1109.64 134.28 1108.33 140C1093.17 206.14 1082.92 213.41 1087.06 280C1088.75 307.24 1101.86 327.66 1120 327.66C1140.29 327.66 1141.96 303.83 1163.92 280C1211.96 227.87 1213.11 228.84 1260 175.74C1274.92 158.84 1287.54 156.82 1287.54 140C1287.54 125.82 1277.72 114.14 1260 113.75C1193.95 112.28 1189.8 124.19 1120 136.27" stroke="rgba(155, 134, 64, 0.2)" stroke-width="2"></path><path d="M1445.65 420C1445.65 360.44 1513.85 292.35 1540 292.35C1561.03 292.35 1540 356.17 1540 420C1540 464.28 1559.17 508.57 1540 508.57C1511.99 508.57 1445.65 468.55 1445.65 420" stroke="rgba(155, 134, 64, 0.2)" stroke-width="2"></path><path d="M93.33 140C116.65 136.93 124.49 149.78 140 134.04C193.47 79.78 177.47 51.54 231.3 0C247.47 -15.48 255.65 0 280 0C350 0 350 0 420 0C490 0 490 0 560 0C569.08 0 578.15 -6.43 578.15 0C578.15 19.36 582.21 44.79 560 51.58C503.13 68.97 477.32 24.01 420 48.36C373.26 68.22 364.68 88.06 351.89 140C336.16 203.88 383.03 220.29 362.96 280C347.09 327.22 329.19 334.55 280 353.85C217.71 378.3 210.05 361.22 140 367.5C70.05 373.78 41.07 404.64 0 378.97C-28.93 360.89 0 329.49 0 280C0 216.22 -26.85 192.71 0 152.44C19.82 122.71 46.65 146.13 93.33 140" stroke="rgba(155, 134, 64, 0.2)" stroke-width="2"></path><path d="M767.64 140C802.12 105.12 802.9 105.75 840 73.61C883.71 35.75 880.59 25.58 929.25 0C950.59 -11.22 954.63 0 980 0C1050 0 1050 0 1120 0C1190 0 1190 0 1260 0C1290.99 0 1321.97 -12.4 1321.97 0C1321.97 17.13 1297.77 42.31 1260 59.06C1196.78 87.11 1189.62 72.74 1120 89.6C1049.62 106.65 1047.03 104.13 980 126.87C972.75 129.33 971.43 133.37 971.43 140C971.43 146.94 976.58 146.55 980 154C1008.66 216.55 1035.59 218.31 1035.59 280C1035.59 331.04 1017.59 339.78 980 379.47C951.3 409.78 919.32 385.44 903 420C876.71 475.7 917.43 509.66 894.78 560C885.93 579.66 867.39 560 840 560C770 560 770 560 700 560C671.76 560 643.51 577.05 643.51 560C643.51 523.39 662.56 497.19 700 452.67C721.43 427.19 761.25 434.17 761.25 420C761.25 406.7 720.67 420.55 700 397.73C657.26 350.55 634.43 334.19 634.43 280C634.43 242.95 668.25 248.62 700 215.25C734.86 178.62 732.12 175.94 767.64 140" stroke="rgba(155, 134, 64, 0.2)" stroke-width="2"></path><path d="M1344.92 140C1344.92 111.49 1364.65 94.96 1400 82.07C1462.19 59.39 1493.52 49.62 1540 68.85C1563.52 78.58 1540 104.43 1540 140C1540 176.78 1563.96 204.29 1540 213.56C1493.96 231.38 1463.06 217.97 1400 194.19C1365.52 181.19 1344.92 167.55 1344.92 140" stroke="rgba(155, 134, 64, 0.2)" stroke-width="2"></path><path d="M1232.55 280C1232.55 261.36 1246.05 250.21 1260 250.21C1274.36 250.21 1289.17 260.99 1289.17 280C1289.17 339.52 1274.18 407.27 1260 407.27C1245.87 407.27 1232.55 339.89 1232.55 280" stroke="rgba(155, 134, 64, 0.2)" stroke-width="2"></path><path d="M1070.59 420C1080.07 398.63 1094.4 402.13 1120 402.13C1179.11 402.13 1187.46 400.16 1240 420C1257.46 426.59 1256.05 435.63 1260 455C1270.33 505.63 1268.57 511.45 1268.57 560C1268.57 563.95 1264.28 560 1260 560C1190 560 1190 560 1120 560C1085 560 1058.18 583.17 1050 560C1033.47 513.17 1045.07 477.56 1070.59 420" stroke="rgba(155, 134, 64, 0.2)" stroke-width="2"></path><path d="M1521.74 420C1521.74 408.47 1534.94 395.29 1540 395.29C1544.07 395.29 1540 407.64 1540 420C1540 428.57 1543.71 437.14 1540 437.14C1534.58 437.14 1521.74 429.4 1521.74 420" stroke="rgba(155, 134, 64, 0.2)" stroke-width="2"></path><path d="M238.59 560C238.59 546.24 252.52 517.16 280 514.06C343.22 506.92 353.26 520.47 420 539.51C433.76 543.44 441 554.03 441 560C441 564.27 430.5 560 420 560C350 560 350 560 280 560C259.3 560 238.59 569.21 238.59 560" stroke="rgba(155, 134, 64, 0.2)" stroke-width="2"></path><path d="M229.44 140C266.61 82.99 260.72 10 280 10C298.29 10 294.96 74.6 304.59 140C314.84 209.6 328.67 216.36 319.75 280C316.38 304.05 304.75 310.86 280 315.38C214.88 327.27 209.98 312 140 312.81C69.98 313.62 54.88 331.48 0 318.62C-15.12 315.08 0 299.31 0 280C0 255.11 -18.35 237.46 0 230.22C51.65 209.83 78.96 248.74 140 224.74C193.68 203.63 196.61 190.36 229.44 140" stroke="rgba(155, 134, 64, 0.2)" stroke-width="2"></path><path d="M806.97 140C822.29 123.66 821.39 109.69 840 109.69C867.91 109.69 878.65 115.45 900 140C948.65 195.94 940.57 205.04 980 270.67C982.63 275.04 984.12 275.43 984.12 280C984.12 283.78 983.88 285.84 980 287.37C911.82 314.36 911.76 329.14 840 337.04C771.76 344.55 761.58 339.96 700 318.18C680.95 311.44 678.73 297.57 678.73 280C678.73 267.98 689.91 270.02 700 259C754.03 200.02 752.29 198.32 806.97 140" stroke="rgba(155, 134, 64, 0.2)" stroke-width="2"></path><path d="M980 17.5C971.4 14.99 973 6.38 973 0C973 -2.37 976.5 0 980 0C1050 0 1050 0 1120 0C1190 0 1190 0 1260 0C1262.3 0 1264.59 -0.92 1264.59 0C1264.59 1.27 1263.02 3.47 1260 4.37C1190.73 24.94 1190.71 39.61 1120 42.93C1050.71 46.18 1044.9 36.45 980 17.5" stroke="rgba(155, 134, 64, 0.2)" stroke-width="2"></path><path d="M1420 140C1420 133 1486.14 126.23 1540 126.23C1546.14 126.23 1540 133.12 1540 140C1540 147.12 1546.33 154.24 1540 154.24C1486.33 154.24 1420 147 1420 140" stroke="rgba(155, 134, 64, 0.2)" stroke-width="2"></path><path d="M770 560C770 556.06 809.75 544.44 840 544.44C846.78 544.44 844.06 553.79 844.06 560C844.06 561.57 842.03 560 840 560C805 560 770 563.84 770 560" stroke="rgba(155, 134, 64, 0.2)" stroke-width="2"></path><path d="M1091.67 560C1091.67 536.29 1100.15 493.89 1120 493.89C1144.83 493.89 1181.03 540.3 1181.03 560C1181.03 573.36 1150.51 560 1120 560C1105.84 560 1091.67 569.34 1091.67 560" stroke="rgba(155, 134, 64, 0.2)" stroke-width="2"></path></g><defs><mask id="SvgjsMask1010"><rect width="1440" height="560" fill="#ffffff"></rect></mask></defs></svg>