<svg xmlns="http://www.w3.org/2000/svg" width="512" height="127" viewBox="0 0 512 127" version="1.1"><path d="M 35.419 4.483 C 34.144 6.430, 34.013 7.599, 34.815 9.898 C 35.377 11.511, 35.587 13.079, 35.283 13.384 C 34.978 13.688, 36.137 14.739, 37.858 15.719 C 39.579 16.698, 40.990 17.789, 40.994 18.141 C 40.997 18.494, 39.313 19.471, 37.250 20.312 C 31.708 22.572, 27.363 26.153, 22.895 32.141 C 14.688 43.140, 13.998 45.638, 11.018 75.146 C 10.263 82.626, 8.762 89.375, 5.972 97.842 C 3.787 104.469, 2 111.311, 2 113.045 C 2 120.353, 8.493 127.412, 12.997 125.001 C 15.761 123.522, 16.391 120.005, 15.152 112.970 C 13.281 102.352, 15.847 100.764, 22.429 108.468 C 24.943 111.411, 27 114.321, 27 114.934 C 27 115.548, 28.225 116.515, 29.722 117.084 C 33.323 118.454, 36.960 116.824, 37.115 113.771 C 37.457 107.024, 34.801 102.301, 28.160 97.847 C 25.597 96.128, 22.938 94.023, 22.250 93.170 C 20.838 91.416, 20.555 85.393, 21.848 84.594 C 22.314 84.306, 24.441 81.086, 26.574 77.438 C 34.056 64.645, 45.146 58.012, 61.516 56.539 C 70.609 55.720, 71.637 56.411, 70.144 62.341 C 68.660 68.237, 68.685 74.285, 70.200 75.800 C 71.988 77.588, 77.468 77.254, 79.222 75.250 C 80.064 74.287, 81.686 71.357, 82.826 68.738 C 83.965 66.119, 85.604 63.705, 86.467 63.374 C 88.946 62.423, 93.844 64.939, 102.800 71.765 C 116.889 82.502, 119.123 83.507, 121.020 79.962 C 122.537 77.128, 121.611 74.914, 115.685 67.202 C 110.934 61.019, 110.566 60.151, 110.939 56 C 111.874 45.578, 111.378 39.522, 109.256 35.432 C 104.447 26.164, 94.558 20.355, 71 12.956 C 63.575 10.624, 54.312 7.205, 50.414 5.358 C 41.767 1.260, 37.687 1.022, 35.419 4.483 M 287 62 L 287 100 295.500 100 C 303.444 100, 304 99.864, 304 97.918 C 304 95.839, 304.003 95.839, 307.624 98.077 C 310.201 99.669, 313.341 100.451, 318.495 100.781 C 331.516 101.617, 340.488 96.816, 345.686 86.230 C 348.104 81.307, 348.499 79.302, 348.494 72 C 348.489 64.354, 348.177 62.948, 345.392 58 C 341.912 51.820, 335.792 46.592, 330.225 45.046 C 323.556 43.193, 314.826 43.753, 309.669 46.364 L 305 48.728 305 36.364 L 305 24 296 24 L 287 24 287 62 M 422 34.838 C 422 40.798, 422.297 57.898, 422.661 72.838 L 423.321 100 431.661 100 L 440 100 440 62 L 440 24 431 24 L 422 24 422 34.838 M 93.750 43.080 C 90.046 45.237, 92.791 53, 97.257 53 C 101.535 53, 103.507 46.674, 100.171 43.655 C 98.091 41.772, 96.275 41.610, 93.750 43.080 M 371.572 46.018 C 365.869 48.244, 359.765 53.768, 356.672 59.500 C 354.916 62.755, 354.513 65.190, 354.507 72.578 C 354.501 80.941, 354.738 82.042, 357.521 86.544 C 363.403 96.058, 373.140 101, 386 101 C 394.314 101, 401.491 98.911, 405.935 95.198 C 409.370 92.328, 409.370 92.328, 407.283 89.414 C 406.135 87.811, 404.083 85.462, 402.724 84.194 C 400.253 81.889, 400.253 81.889, 396.660 84.327 C 389.625 89.101, 380.383 88.537, 374.842 82.996 C 369.079 77.233, 369.771 77, 392.632 77 L 413.263 77 412.788 69.606 C 412.037 57.893, 405.579 49.089, 395.128 45.528 C 388.888 43.402, 377.675 43.635, 371.572 46.018 M 468.703 45.385 C 455.251 50.386, 447.880 61.861, 449.298 75.595 C 449.973 82.137, 454.159 90.160, 458.966 94.126 C 467.331 101.026, 481.527 103.019, 492.653 98.857 C 515.551 90.290, 517.393 58.469, 495.638 47.277 C 491.440 45.117, 488.853 44.573, 481.500 44.304 C 475.466 44.082, 471.249 44.439, 468.703 45.385 M 375.400 60.400 C 369.404 66.396, 370.240 67, 384.526 67 C 397.051 67, 397.051 67, 395.546 64.088 C 393.027 59.218, 389.341 57, 383.765 57 C 379.452 57, 378.354 57.446, 375.400 60.400 M 310.615 60.088 C 306.809 63.082, 305 67.179, 305 72.802 C 305 83.701, 314.855 90.229, 324.094 85.451 C 333.365 80.657, 333.286 63.993, 323.970 59.279 C 320.077 57.309, 313.653 57.698, 310.615 60.088 M 474.030 59.279 C 465.317 63.688, 464.498 78.527, 472.615 84.912 C 475.653 87.302, 482.077 87.691, 485.970 85.721 C 494.683 81.312, 495.502 66.473, 487.385 60.088 C 484.347 57.698, 477.923 57.309, 474.030 59.279" stroke="none" fill="#ffffff" fill-rule="evenodd"/><path d="" stroke="none" fill="#fffcfc" fill-rule="evenodd"/><path d="M 15.008 3.279 C 10.616 4.415, 11.024 7.392, 15.835 9.317 C 20.591 11.220, 26 15.673, 26 17.685 C 26 18.513, 25.067 20.501, 23.927 22.102 C 21.665 25.279, 17.672 34.735, 16.581 39.500 C 16.024 41.932, 16.670 41.365, 19.996 36.500 C 22.253 33.200, 25.465 28.363, 27.135 25.750 C 29.600 21.894, 30.711 21, 33.039 21 C 36.239 21, 41 19.122, 41 17.859 C 41 16.972, 38.260 16.210, 33.509 15.774 C 29.354 15.393, 29.307 13.231, 33.327 7.388 L 36.734 2.435 27.375 2.467 C 22.228 2.485, 16.663 2.850, 15.008 3.279 M 33.177 10.667 C 33.355 11.584, 34.027 12.510, 34.671 12.724 C 35.416 12.972, 35.647 12.366, 35.305 11.057 C 34.666 8.613, 32.709 8.254, 33.177 10.667 M 239.366 46.518 C 235.230 48.612, 235 48.630, 235 46.864 C 235 45.192, 234.127 45, 226.500 45 L 218 45 218 82.500 L 218 120 226.500 120 L 235 120 235 108.016 L 235 96.032 239.222 98.233 C 244.235 100.846, 253.701 101.696, 259.724 100.074 C 264.248 98.856, 271.634 93.710, 273.405 90.542 C 274.007 89.465, 275.067 87.967, 275.759 87.212 C 276.452 86.457, 276.763 85.425, 276.450 84.919 C 276.138 84.414, 276.407 84, 277.048 84 C 277.689 84, 277.960 83.339, 277.651 82.532 C 277.341 81.725, 277.450 80.840, 277.894 80.566 C 278.337 80.292, 278.700 76.662, 278.700 72.500 C 278.700 68.338, 278.337 64.708, 277.894 64.434 C 277.450 64.160, 277.341 63.275, 277.651 62.468 C 277.960 61.661, 277.689 61, 277.048 61 C 276.407 61, 276.136 60.589, 276.447 60.086 C 277.145 58.956, 271.218 51.091, 268.542 49.595 C 267.465 48.993, 265.983 47.949, 265.247 47.276 C 261.055 43.440, 246.299 43.008, 239.366 46.518 M 115 46 C 115 46.550, 115.525 47, 116.167 47 C 116.808 47, 117.071 47.263, 116.749 47.584 C 116.094 48.239, 119.483 58.672, 120.910 60.391 C 121.416 61.001, 121.778 61.725, 121.715 62 C 121.409 63.331, 124.370 72, 125.130 72 C 125.608 72, 125.899 72.338, 125.775 72.750 C 125.312 74.297, 128.302 83, 129.297 83 C 129.867 83, 130.071 83.263, 129.749 83.584 C 129.168 84.165, 132.197 93.923, 133.687 96.269 C 134.117 96.946, 134.476 97.950, 134.485 98.500 C 134.493 99.067, 138.290 99.625, 143.250 99.789 C 152.241 100.086, 152.765 99.847, 152.118 95.750 C 152.053 95.338, 152.414 95, 152.921 95 C 153.803 95, 155.586 89.306, 155.190 87.750 C 155.086 87.338, 155.414 87, 155.921 87 C 156.657 87, 157.734 84.055, 158.479 80 C 158.530 79.725, 159.115 78.522, 159.780 77.326 C 160.445 76.130, 161.149 74.330, 161.345 73.326 C 161.950 70.213, 163.167 68, 164.274 68 C 164.856 68, 165.071 68.263, 164.749 68.584 C 164.094 69.239, 167.483 79.672, 168.910 81.391 C 169.416 82.001, 169.778 82.725, 169.715 83 C 169.372 84.494, 172.418 93, 173.297 93 C 173.867 93, 174.070 93.263, 173.748 93.585 C 173.427 93.907, 173.621 95.482, 174.179 97.085 C 175.183 99.965, 175.289 100, 182.848 99.985 C 187.057 99.976, 190.991 99.639, 191.591 99.235 C 192.958 98.313, 196.029 89.362, 195.246 88.579 C 194.927 88.261, 195.133 88, 195.703 88 C 196.512 88, 198.390 83.139, 199.566 78 C 199.629 77.725, 200.429 75.825, 201.343 73.777 C 202.257 71.729, 203.163 69.254, 203.356 68.277 C 203.550 67.300, 204.450 64.825, 205.356 62.777 C 206.263 60.729, 207.129 58.254, 207.281 57.277 C 207.433 56.300, 207.894 54.962, 208.304 54.305 C 208.714 53.648, 209.694 51.286, 210.480 49.055 C 211.911 45, 211.911 45, 203.897 45 C 199.205 45, 196.120 45.386, 196.457 45.931 C 196.774 46.443, 196.568 47.149, 196 47.500 C 195.432 47.851, 195.226 48.557, 195.543 49.069 C 195.859 49.581, 195.700 50, 195.189 50 C 194.463 50, 191.706 57.492, 191.509 60 C 191.487 60.275, 191.117 61.054, 190.687 61.731 C 189.978 62.848, 186.620 72.075, 186.041 74.500 C 185.363 77.335, 183.238 80.194, 182.588 79.143 C 182.200 78.514, 182.107 78, 182.381 78 C 182.947 78, 178.540 64.676, 177.338 62.752 C 176.908 62.063, 176.483 61.017, 176.392 60.426 C 176.302 59.835, 175.189 56.122, 173.917 52.176 C 171.606 45, 171.606 45, 163.803 45 C 155.897 45, 155.264 45.340, 155.882 49.250 C 155.947 49.663, 155.608 50, 155.130 50 C 154.254 50, 151.357 58.852, 151.775 60.250 C 151.899 60.663, 151.608 61, 151.130 61 C 150.254 61, 147.357 69.852, 147.775 71.250 C 147.899 71.662, 147.621 72, 147.158 72 C 146.695 72, 145.732 73.912, 145.018 76.250 C 143.719 80.500, 143.719 80.500, 141.709 74.500 C 140.604 71.200, 139.279 68.225, 138.765 67.888 C 138.250 67.552, 137.868 66.989, 137.915 66.638 C 137.962 66.287, 137.966 65.888, 137.923 65.750 C 137.881 65.612, 137.706 64.779, 137.534 63.898 C 137.361 63.017, 135.953 58.404, 134.404 53.648 L 131.588 45 123.294 45 C 118.431 45, 115 45.414, 115 46 M 60.543 64.750 C 59.549 78.428, 58.008 86.961, 55.289 93.850 C 51.595 103.208, 51.412 106.637, 54.306 112.279 C 56.313 116.192, 56.462 116.975, 55.129 116.604 C 54.233 116.354, 52.083 115.865, 50.352 115.518 C 45.476 114.539, 45.404 111.758, 50.015 102.500 C 54.532 93.433, 54.940 89.940, 51.845 86.845 C 49.792 84.792, 49.745 84.336, 50.850 77.228 C 51.488 73.124, 52.867 67.828, 53.915 65.460 C 54.963 63.091, 55.560 60.894, 55.243 60.577 C 53.663 58.997, 51.069 60.334, 49.565 63.504 C 47.790 67.245, 45.053 80.104, 44.918 85.338 C 44.837 88.500, 44.837 88.500, 43.300 85 C 42.113 82.298, 41.879 79.162, 42.273 71.250 C 42.555 65.612, 42.453 61, 42.047 61 C 41.642 61, 40.453 61.948, 39.405 63.108 C 36.583 66.230, 36.645 82.819, 39.500 88.431 C 42.104 93.549, 44.308 94.913, 47.128 93.152 C 49.144 91.893, 49.225 91.967, 48.592 94.491 C 48.223 95.960, 46.701 99.005, 45.211 101.257 C 43.379 104.025, 42.338 107.159, 42 110.926 C 41.500 116.500, 41.500 116.500, 37 117.123 C 30.836 117.977, 26.003 117.155, 26.689 115.369 C 26.983 114.602, 26.659 113.294, 25.968 112.462 C 24.853 111.118, 24.507 111.137, 22.857 112.630 C 20.531 114.735, 20.349 120.536, 22.582 121.393 C 23.452 121.727, 28.254 122, 33.253 122 C 40.004 122, 42.777 121.607, 44.031 120.472 C 45.359 119.271, 46.313 119.168, 48.487 119.995 C 50.009 120.574, 54.561 121.327, 58.603 121.668 C 65.095 122.217, 66.032 122.079, 66.643 120.489 C 67.153 119.160, 66.363 117.910, 63.625 115.714 C 56.778 110.221, 55.595 105.444, 59.072 97.333 C 62.380 89.617, 64.192 80.370, 64.869 67.749 C 65.490 56.180, 65.467 55.999, 63.340 55.999 C 61.339 56, 61.133 56.647, 60.543 64.750 M 244.395 58.169 C 244.102 58.644, 243.443 58.774, 242.931 58.457 C 242.419 58.141, 242 58.282, 242 58.772 C 242 59.262, 240.972 60.212, 239.716 60.885 C 236.548 62.580, 233.501 71.288, 234.828 74.854 C 235.719 77.248, 236.091 78.360, 237.051 81.500 C 237.891 84.245, 243.588 87, 248.425 87 C 252.743 87, 259 84.372, 259 82.558 C 259 81.780, 259.563 80.548, 260.250 79.821 C 262.840 77.083, 262.798 67.398, 260.184 64.784 C 259.533 64.133, 259 63.004, 259 62.275 C 259 59.935, 245.628 56.175, 244.395 58.169 M 21.719 84.614 C 20.487 85.846, 20.931 91.523, 22.418 93.557 C 24.563 96.491, 24.958 95.074, 23.633 89.198 C 22.976 86.281, 22.114 84.219, 21.719 84.614" stroke="none" fill="#fcfcfc" fill-rule="evenodd"/></svg>